<?xml version="1.0" standalone="no"?>
<!DOCTYPE svg PUBLIC "-//W3C//DTD SVG 20010904//EN"
 "http://www.w3.org/TR/2001/REC-SVG-20010904/DTD/svg10.dtd">
<svg version="1.0" xmlns="http://www.w3.org/2000/svg"
 width="415.000000pt" height="147.000000pt" viewBox="0 0 415.000000 147.000000"
 preserveAspectRatio="xMidYMid meet">

<g transform="translate(0.000000,147.000000) scale(0.100000,-0.100000)"
fill="#000000" stroke="none">
<path d="M2466 1039 c-102 -24 -157 -103 -127 -182 33 -85 126 -73 119 16 -2
27 1 41 11 45 8 3 11 0 7 -6 -3 -6 -1 -43 5 -83 11 -72 11 -73 -15 -92 -35
-25 -35 -68 0 -96 15 -12 34 -21 44 -21 23 0 41 -63 49 -171 3 -49 12 -93 20
-103 21 -25 68 -20 87 9 18 27 15 98 -7 217 l-11 57 56 52 c85 77 115 152 96
234 -11 50 -72 109 -126 124 -46 13 -153 13 -208 0z m202 -125 c13 -9 22 -24
22 -40 0 -31 -34 -96 -60 -111 -16 -11 -19 -6 -28 45 -6 31 -13 74 -16 94 -5
37 -4 37 27 31 18 -3 42 -12 55 -19z"/>
<path d="M3580 1031 c-76 -27 -110 -67 -110 -130 0 -85 61 -130 110 -81 23 23
24 29 11 64 -7 17 -7 26 2 29 8 2 16 -22 24 -77 l11 -80 -29 -27 c-16 -15 -29
-30 -29 -33 0 -23 29 -57 60 -70 32 -13 39 -21 49 -61 6 -26 15 -83 18 -127 4
-48 12 -85 20 -94 19 -19 58 -18 77 2 20 20 21 121 2 219 -12 62 -12 71 1 79
40 22 94 82 117 129 50 100 27 194 -61 248 -53 33 -194 38 -273 10z m213 -113
c22 -9 27 -16 27 -45 0 -39 -18 -79 -48 -106 -20 -19 -21 -18 -31 20 -6 21
-11 52 -11 70 0 17 -4 43 -10 57 -9 25 -8 26 18 20 15 -3 39 -10 55 -16z"/>
<path d="M1140 692 c0 -218 2 -262 15 -272 8 -7 22 -10 30 -6 13 4 15 31 14
168 -1 90 -4 208 -8 263 -6 94 -7 100 -28 103 l-23 3 0 -259z"/>
<path d="M1444 935 c-11 -27 3 -506 14 -517 6 -6 18 -8 26 -5 14 6 16 32 15
194 -2 260 -9 337 -32 341 -9 2 -20 -4 -23 -13z"/>
<path d="M3055 936 c-44 -19 -90 -71 -104 -117 -30 -101 -6 -264 53 -358 64
-101 170 -134 267 -85 108 54 127 223 45 388 -39 79 -78 122 -148 160 -53 29
-70 31 -113 12z m117 -158 c48 -63 71 -121 75 -188 5 -82 -10 -114 -55 -118
-72 -7 -142 110 -142 237 0 61 5 72 35 89 35 20 61 14 87 -20z"/>
<path d="M239 798 c0 -62 -4 -167 -9 -233 -4 -67 -4 -124 1 -129 9 -10 199
-11 229 -1 23 7 33 34 19 51 -8 9 -17 10 -37 3 -14 -6 -55 -7 -95 -3 l-69 7 5
51 c13 111 18 283 10 321 -7 30 -14 41 -31 43 -22 3 -22 1 -23 -110z"/>
<path d="M785 780 c-33 -13 -93 -86 -104 -127 -6 -21 -11 -69 -11 -106 0 -62
3 -71 29 -98 57 -57 127 -26 186 82 54 101 49 179 -17 234 -31 26 -49 29 -83
15z m59 -65 c26 -27 28 -54 6 -119 -24 -75 -58 -116 -94 -116 -32 0 -41 30
-32 101 8 62 24 97 46 104 10 3 20 15 23 25 6 24 30 26 51 5z"/>
<path d="M1716 702 c-7 -11 29 -192 48 -235 11 -28 21 -37 38 -37 13 0 29 5
36 12 6 6 15 8 19 4 16 -15 15 -147 -1 -228 -26 -129 -69 -169 -107 -98 -11
19 -19 54 -19 78 0 39 -2 43 -22 40 -20 -3 -23 -10 -26 -56 -2 -40 2 -62 20
-93 21 -37 61 -69 87 -69 22 0 85 67 104 110 26 60 34 224 17 395 -15 157 -20
180 -46 180 -17 0 -20 -10 -24 -85 -6 -85 -20 -134 -34 -111 -4 6 -11 39 -17
73 -15 94 -28 128 -49 128 -10 0 -21 -4 -24 -8z"/>
</g>
</svg>
