<?xml version="1.0" standalone="no"?>
<!DOCTYPE svg PUBLIC "-//W3C//DTD SVG 20010904//EN"
 "http://www.w3.org/TR/2001/REC-SVG-20010904/DTD/svg10.dtd">
<svg version="1.0" xmlns="http://www.w3.org/2000/svg"
 width="30.000000pt" height="30.000000pt" viewBox="0 0 30.000000 30.000000"
 preserveAspectRatio="xMidYMid meet">

<g transform="translate(0.000000,30.000000) scale(0.100000,-0.100000)"
fill="#000000" stroke="none">
<path d="M34 266 c-43 -43 -46 -90 -9 -134 31 -37 73 -48 120 -32 35 11 35 11
86 -44 28 -31 55 -53 61 -50 5 4 -15 32 -46 63 -54 55 -56 59 -46 87 26 67
-26 144 -97 144 -27 0 -43 -8 -69 -34z m130 -12 c35 -36 35 -82 0 -118 -54
-53 -144 -16 -144 61 0 75 90 111 144 57z"/>
</g>
</svg>
