<?xml version="1.0" standalone="no"?>
<!DOCTYPE svg PUBLIC "-//W3C//DTD SVG 20010904//EN"
 "http://www.w3.org/TR/2001/REC-SVG-20010904/DTD/svg10.dtd">
<svg version="1.0" xmlns="http://www.w3.org/2000/svg"
 width="30.000000pt" height="30.000000pt" viewBox="0 0 30.000000 30.000000"
 preserveAspectRatio="xMidYMid meet">

<g transform="translate(0.000000,30.000000) scale(0.100000,-0.100000)"
fill="#000000" stroke="none">
<path d="M5 270 c-3 -5 3 -11 13 -14 17 -6 78 -153 84 -206 3 -26 5 -26 71
-13 15 3 33 0 41 -6 18 -15 46 -3 46 19 0 21 -29 35 -44 20 -16 -16 -62 -12
-87 10 l-24 19 82 1 c82 0 83 0 89 28 3 15 10 42 15 61 8 33 5 51 -6 39 -4 -3
-11 -28 -18 -54 l-12 -49 -75 -3 -75 -3 -29 75 c-19 50 -34 76 -47 79 -10 3
-21 1 -24 -3z"/>
<path d="M100 190 c0 -6 31 -10 74 -10 41 0 78 5 81 10 4 6 -23 10 -74 10 -47
0 -81 -4 -81 -10z"/>
<path d="M120 150 c0 -6 27 -10 60 -10 33 0 60 4 60 10 0 6 -27 10 -60 10 -33
0 -60 -4 -60 -10z"/>
</g>
</svg>
